# xmcd CD database file
#
# Track frame offsets:
#	150
#	8022
#	21030
#	39832
#	48105
#	62935
#	69352
#	81620
#	86997
#	107825
#	123060
#	138160
#	154672
#	176012
#	193000
#
# Disc length: 2633 seconds
#
# Revision: 0
# Processed by: cddbd v1.5.1PL0 Copyright (c) Steve Scherf et al.
# Submitted via: CDex 1.51
#
DISCID=be0a470f
DTITLE=HI-D and TWIGY - LOVE or HATE
DYEAR=2005
DGENRE=Hip-Hop
TTITLE0=intro
TTITLE1=BABY
TTITLE2=B-I-GHT!
TTITLE3=Scene1 - Passion
TTITLE4=HYPE LOVE
TTITLE5=Scene2 - Invitation
TTITLE6=SOUTH LOVE feat. D.O, JASHUWON
TTITLE7=Scene3 - Alone
TTITLE8=LOVE or HATE
TTITLE9=AGAINST THE WORLD
TTITLE10=YO! LOVE feat. SHO-TYME
TTITLE11=LIKE THIS
TTITLE12=PARTY REMIX feat. BUTCHER, D.O, JASHUWON
TTITLE13=AGAINST THE WORLD pt.2
TTITLE14=outro
EXTD=YEAR: 2005
EXTT0=
EXTT1=
EXTT2=
EXTT3=
EXTT4=
EXTT5=
EXTT6=
EXTT7=
EXTT8=
EXTT9=
EXTT10=
EXTT11=
EXTT12=
EXTT13=
EXTT14=
PLAYORDER=
